<svg width="319" height="184" viewBox="0 0 319 184" fill="none" xmlns="http://www.w3.org/2000/svg">
<path d="M0.5 16.001C0.5 7.16448 7.66344 0.0010376 16.5 0.0010376H302.5C311.337 0.0010376 318.5 7.16448 318.5 16.001V168.001C318.5 176.838 311.337 184.001 302.5 184.001H16.5C7.66345 184.001 0.5 176.838 0.5 168.001V16.001Z" fill="url(#paint0_linear_223_8)"/>
<path d="M295.021 39.137C295.021 51.5634 284.947 61.637 272.521 61.637C260.094 61.637 250.021 51.5634 250.021 39.137C250.021 26.7106 260.094 16.637 272.521 16.637C284.947 16.637 295.021 26.7106 295.021 39.137Z" fill="#D6D6D6" fill-opacity="0.61"/>
<defs>
<linearGradient id="paint0_linear_223_8" x1="318.5" y1="20.501" x2="0.500008" y2="184.001" gradientUnits="userSpaceOnUse">
<stop stop-color="#3B619B"/>
<stop offset="1" stop-color="#1A3D73"/>
</linearGradient>
</defs>
</svg>
