<svg width="431" height="424" viewBox="0 0 431 424" fill="none" xmlns="http://www.w3.org/2000/svg">
<path fill-rule="evenodd" clip-rule="evenodd" d="M381.701 13.4186C376.167 5.36186 366.888 0.078125 356.375 0.078125H61.625C44.6681 0.078125 30.9219 13.8244 30.9219 30.7813V358.883L43.2031 346.788V30.7813C43.2031 20.6071 51.4509 12.3594 61.625 12.3594H356.375C363.478 12.3594 369.642 16.379 372.716 22.2675L381.701 13.4186ZM387.078 77.0718L374.797 89.1669V393.078C374.797 403.252 366.549 411.5 356.375 411.5H61.625C57.6495 411.5 53.9681 410.241 50.958 408.099L42.1269 416.796C47.4296 421.161 54.2213 423.781 61.625 423.781H356.375C373.332 423.781 387.078 410.035 387.078 393.078V77.0718ZM128.561 331.672H344.094V319.391H141.031L128.561 331.672ZM190.912 270.266H344.094V257.984H203.382L190.912 270.266ZM253.263 208.859H344.094V196.578H265.733L253.263 208.859ZM195.724 196.578L183.253 208.859H73.9062V196.578H195.724ZM315.614 147.453H344.094V135.172H328.084L315.614 147.453ZM258.074 135.172L245.604 147.453H73.9062V135.172H258.074ZM320.425 73.7656L307.955 86.0469H73.9062V73.7656H320.425ZM133.373 257.984L120.902 270.266H73.9062V257.984H133.373Z" fill="#D6D6D6" fill-opacity="0.75"/>
<path d="M417.781 12.3594L12.5 411.5" stroke="#D6D6D6" stroke-opacity="0.75" stroke-width="24.5625" stroke-linecap="round"/>
</svg>
