<svg width="1545" height="1744" viewBox="0 0 1545 1744" fill="none" xmlns="http://www.w3.org/2000/svg">
<path fill-rule="evenodd" clip-rule="evenodd" d="M729.977 5.86293C729.977 9.08862 720.409 10.3151 708.716 8.59946C696.951 6.87673 687.454 8.7129 687.454 12.7113C687.454 16.6885 681.076 18.2694 673.28 16.2347C665.045 14.0796 659.105 16.015 659.105 20.8571C659.105 25.444 655.923 27.2305 652.04 24.8272C641.742 18.4609 559.304 57.1266 564.662 65.8041C567.136 69.8096 565.881 71.0574 561.863 68.5761C551.629 62.2452 506.108 96.8416 464.074 142.902C425.747 184.907 379.12 264.946 386.25 276.488C388.66 280.387 386.909 283.577 382.366 283.577C377.823 283.577 375.86 288.157 378.008 293.751C380.155 299.351 378.277 305.143 373.84 306.618C369.404 308.1 365.598 322.654 365.378 338.96C365.166 355.266 362.6 368.615 359.673 368.629C356.746 368.643 354.358 394.172 354.358 425.366C354.358 456.559 356.994 482.081 360.219 482.081C363.443 482.081 364.606 492.106 362.806 504.356C360.708 518.684 362.175 525.008 366.916 522.073C371.473 519.251 372.877 522.938 370.587 531.7C368.546 539.499 370.339 545.886 374.57 545.886C378.801 545.886 380.424 550.672 378.185 556.52C375.938 562.369 377.823 567.154 382.366 567.154C386.909 567.154 388.794 570.125 386.548 573.755C380.594 583.396 405.045 631.129 413.316 626.018C417.178 623.629 418.241 625.061 415.69 629.194C413.139 633.32 422.508 650.562 436.519 667.505C467.887 705.448 479.113 716.564 471.197 701.854C467.809 695.551 468.107 693.63 471.934 697.125C475.477 700.379 478.383 705.363 478.383 708.206C478.383 720.229 540.629 786.579 548.149 782.574C552.656 780.171 509.857 824.855 453.039 881.876C396.229 938.889 350.58 986.374 351.601 987.402C352.628 988.43 341.119 988.089 326.03 986.65C292.834 983.481 278.972 969.232 275.123 934.309C273.529 919.832 273.543 909.312 275.152 910.928C276.768 912.544 282.381 910.028 287.625 905.334C307.405 887.668 315.754 882.57 328.49 880.387C335.704 879.153 339.964 880.798 337.958 884.052C335.945 887.299 341.813 893.502 350.991 897.834C366.257 905.037 371.622 901.648 413.947 857.977L460.219 810.244L444.492 795.874C422.912 776.137 383.762 757.08 375.414 762.241C371.629 764.581 368.532 763.284 368.532 759.356C368.532 755.322 349.298 752.252 324.237 752.302C276.321 752.387 200.361 779.915 209.085 794.038C211.608 798.114 209.801 800.581 205.081 799.51C193.167 796.809 147.229 857.601 151.927 869.852C154.323 876.098 152.721 877.948 147.632 874.807C142.112 871.39 140.786 874.673 143.508 885.073C145.705 893.481 144.613 900.358 141.077 900.358C137.548 900.358 134.656 917.904 134.656 939.35C134.656 960.795 137.746 978.341 141.523 978.341C145.294 978.341 146.548 983.127 144.309 988.976C142.062 994.824 143.657 999.61 147.852 999.61C152.041 999.61 153.869 1003.79 151.906 1008.9C143.451 1030.96 235.457 1121.66 254.401 1109.95C258.036 1107.7 262.289 1109.68 263.841 1114.35C267.547 1125.46 361.445 1132.03 361.445 1121.18C361.445 1116.95 366.229 1115.32 372.076 1117.56C377.923 1119.81 382.706 1117.93 382.706 1113.38C382.706 1108.84 385.605 1106.91 389.156 1109.1C399.028 1115.2 418.667 1105.45 413.465 1097.03C410.935 1092.93 412.217 1091.65 416.307 1094.18C420.403 1096.71 431.26 1092.18 440.438 1084.1C449.616 1076.03 452.642 1071.75 447.164 1074.6C440.566 1078.04 438.936 1076.99 442.345 1071.48C445.166 1066.92 449.857 1064.66 452.777 1066.46C455.697 1068.27 497.689 1030.04 546.087 981.51C594.485 932.976 637.624 893.268 641.954 893.268C652.479 893.268 675.385 919.088 672.238 927.404C670.863 931.034 566.98 1034.9 441.395 1158.22C243.139 1352.9 210.226 1382.44 191.573 1382.44C179.759 1382.44 163.975 1376.32 156.506 1368.85C149.036 1361.38 141.864 1356.33 140.56 1357.63C139.263 1358.92 138.2 1347.76 138.2 1332.81C138.2 1317.87 139.263 1306.7 140.56 1308C141.864 1309.3 149.036 1304.25 156.506 1296.78C171.658 1281.62 198.951 1279.17 221.034 1290.99C233.834 1297.84 241.091 1293.35 280.807 1253.97C305.669 1229.32 326.009 1206.6 326.009 1203.48C326.009 1193.85 259.574 1155.07 249.617 1158.9C243.926 1161.09 242.182 1159.34 245.194 1154.47C248.589 1148.96 244.245 1147.57 231.389 1150.02C221.063 1152 212.615 1150.86 212.615 1147.5C212.615 1144.15 201.261 1141.4 187.391 1141.4C170.751 1141.4 163.82 1144.07 167.016 1149.25C170.29 1154.54 166.91 1155.52 156.612 1152.25C134.862 1145.35 84.1317 1171.84 52.9127 1206.4C24.2735 1238.12 4.14603 1279.47 9.96458 1294.65C12.034 1300.05 10.6378 1304.46 6.86741 1304.46C3.08996 1304.46 0 1317.22 0 1332.81C0 1348.41 3.08996 1361.17 6.86741 1361.17C10.6378 1361.17 11.9206 1365.89 9.70234 1371.66C3.31681 1388.32 33.6286 1442.96 64.9822 1471.3C97.739 1500.9 137.774 1519.83 156.995 1514.81C164.195 1512.92 170.092 1514.27 170.092 1517.8C170.092 1521.34 179.659 1524.23 191.353 1524.23C203.047 1524.23 212.615 1521.48 212.615 1518.12C212.615 1514.76 221.063 1513.63 231.389 1515.61C244.245 1518.06 248.589 1516.66 245.194 1511.15C242.211 1506.33 243.912 1504.5 249.454 1506.59C268.454 1513.73 315.96 1473.63 467.696 1322.4L623.67 1166.93L623.174 1368.62C622.848 1499.81 620.353 1565.35 616.03 1556.13C610.587 1544.52 609.807 1546.06 611.7 1564.62C612.975 1577.09 611.77 1585.89 609.014 1584.19C606.264 1582.49 600.077 1585.85 595.257 1591.66C583.011 1606.42 543.316 1604.97 529.092 1589.24C511.735 1570.06 513.968 1529.69 533.308 1513.1C542.082 1505.58 554.038 1499.41 559.885 1499.41C568.354 1499.41 570.927 1486.99 572.55 1438.22L574.584 1377.03L548.482 1372.13C534.123 1369.44 520.452 1369.86 518.099 1373.06C515.747 1376.27 509.836 1379.21 504.96 1379.6C500.091 1379.99 491.764 1380.79 486.469 1381.38C454.825 1384.87 376.2 1482.87 385.534 1507.19C387.632 1512.66 386.257 1517.14 382.487 1517.14C378.709 1517.14 375.619 1534.68 375.619 1556.13C375.619 1577.58 378.709 1595.12 382.487 1595.12C386.257 1595.12 387.512 1599.91 385.272 1605.76C383.025 1611.6 384.62 1616.39 388.816 1616.39C393.011 1616.39 394.4 1621.69 391.913 1628.19C388.624 1636.75 389.956 1638.4 396.774 1634.18C403.068 1630.29 404.464 1631.11 401.027 1636.69C387.483 1658.61 493.713 1744.79 521.246 1734.22C526.909 1732.04 531.537 1733.36 531.537 1737.13C531.537 1740.91 545.888 1744 563.429 1744C580.97 1744 595.321 1741.11 595.321 1737.58C595.321 1734.04 601.225 1732.69 608.44 1734.58C615.654 1736.46 626.094 1733.78 631.643 1728.6C637.185 1723.42 646.434 1718.14 652.188 1716.85C683.025 1709.99 743.896 1640.27 733.599 1623.61C731.146 1619.64 732.862 1616.39 737.404 1616.39C741.947 1616.39 743.832 1611.6 741.586 1605.76C739.346 1599.91 740.671 1595.12 744.534 1595.12C749.091 1595.12 750.877 1496.92 749.63 1315.76C748.567 1162.11 749.729 1037.66 752.209 1039.2C754.69 1040.74 760.693 1037.2 765.548 1031.35C772.266 1023.25 776.703 1022.63 784.073 1028.75C791.961 1035.3 793.761 1087.95 793.761 1312.41C793.761 1485.48 796.313 1588.03 800.629 1588.03C804.399 1588.03 805.767 1592.53 803.655 1598.03C789.927 1633.82 903.952 1747.82 939.735 1734.08C945.207 1731.98 949.679 1733.36 949.679 1737.13C949.679 1740.91 965.816 1744 985.533 1744C1005.25 1744 1019.92 1741.61 1018.12 1738.68C1016.33 1735.76 1023.76 1733.05 1034.65 1732.65C1058.23 1731.8 1107.43 1703.08 1101.57 1693.59C1099.31 1689.93 1101.49 1687.81 1106.4 1688.88C1117.93 1691.39 1164.02 1624.01 1159.26 1611.61C1157.28 1606.44 1158.08 1602.21 1161.04 1602.21C1164 1602.21 1166.63 1579.98 1166.88 1552.8C1167.13 1525.62 1164.64 1505.05 1161.35 1507.09C1158.06 1509.12 1157.3 1505.75 1159.66 1499.61C1162.06 1493.34 1155.9 1476.27 1145.63 1460.75C1104.99 1399.32 1046.58 1363.82 999.303 1371.8L970.94 1376.6V1435.38V1494.15L993.974 1503.78C1006.65 1509.08 1019.64 1512.58 1022.85 1511.56C1026.06 1510.54 1026.83 1512.71 1024.55 1516.39C1022.28 1520.07 1024.43 1527.33 1029.35 1532.52C1038.86 1542.58 1042.95 1575.39 1033.99 1569.86C1031.05 1568.04 1026.62 1572.97 1024.13 1580.82C1018.88 1597.38 997.184 1604.37 963.109 1600.49L939.048 1597.74L937.021 1389.07L934.987 1180.39L1090.56 1335.38C1193.44 1437.88 1249.1 1488.53 1254.92 1484.93C1260.12 1481.71 1261.9 1482.41 1259.29 1486.65C1254.14 1494.98 1287.78 1512.18 1297.48 1506.18C1301.09 1503.94 1304.04 1505.87 1304.04 1510.46C1304.04 1515.49 1310.95 1517.47 1321.54 1515.44C1331.17 1513.6 1337.36 1514.83 1335.3 1518.16C1333.24 1521.5 1341.49 1524.23 1353.65 1524.23C1366.35 1524.23 1373.91 1521.26 1371.43 1517.24C1368.78 1512.96 1374.99 1511.84 1387.57 1514.35C1400.58 1516.95 1411.7 1514.78 1418.1 1508.36C1423.65 1502.81 1431.6 1499.41 1435.77 1500.8C1446.45 1504.36 1507.88 1448.8 1520.72 1423.95C1526.59 1412.59 1529.49 1400.19 1527.15 1396.41C1524.82 1392.63 1526.62 1389.53 1531.17 1389.53C1535.71 1389.53 1537.59 1384.74 1535.35 1378.89C1533.11 1373.05 1534.36 1368.26 1538.13 1368.26C1541.91 1368.26 1545 1352.31 1545 1332.81C1545 1313.32 1542.11 1297.37 1538.58 1297.37C1535.04 1297.37 1533.95 1290.49 1536.15 1282.08C1539.12 1270.69 1537.77 1268.26 1530.85 1272.54C1524.77 1276.3 1523.26 1275.52 1526.47 1270.31C1541.44 1246.1 1441.39 1144.31 1417.28 1159.21C1413.47 1161.57 1410.34 1159.75 1410.34 1155.17C1410.34 1150.32 1404.41 1148.39 1396.17 1150.54C1388.37 1152.58 1382 1151.36 1382 1147.82C1382 1144.29 1370.83 1141.4 1357.19 1141.4C1343.55 1141.4 1332.39 1144.8 1332.39 1148.96C1332.39 1153.3 1326.35 1154.61 1318.25 1152.05C1309.36 1149.23 1290.91 1154.75 1268.52 1166.94C1210.22 1198.67 1210.17 1199.81 1263.99 1253.52C1302.61 1292.06 1312.75 1298.93 1318.28 1290.28C1322.02 1284.43 1325.13 1281.61 1325.19 1284.01C1325.25 1286.41 1337.97 1286.06 1353.46 1283.22C1368.94 1280.39 1380.61 1280.02 1379.39 1282.4C1376.88 1287.28 1400.76 1311.68 1404.44 1308C1405.74 1306.7 1406.8 1317.87 1406.8 1332.81C1406.8 1347.76 1405.52 1358.71 1403.96 1357.14C1402.39 1355.58 1397.52 1359.21 1393.14 1365.22C1383.92 1377.83 1329.64 1392.63 1337.14 1380.48C1340.05 1375.77 1337.4 1374.63 1330.09 1377.43C1323.65 1379.91 1319.14 1379.56 1320.07 1376.66C1322.51 1369.03 870.905 924.795 863.074 927.12C859.452 928.191 858.644 925.582 861.274 921.328C863.903 917.075 867.886 915.43 870.133 917.677C872.379 919.917 881.699 914.714 890.856 906.114L907.496 890.475L952.011 934.607C976.497 958.881 999.254 976.257 1002.59 973.223C1005.92 970.189 1006.6 971.309 1004.09 975.704C997.978 986.409 1108.9 1092.18 1143.3 1108.45C1158.19 1115.5 1174.93 1119.51 1180.51 1117.38C1186.08 1115.24 1190.64 1116.58 1190.64 1120.35C1190.64 1124.13 1204.99 1127.22 1222.53 1127.22C1240.08 1127.22 1254.43 1124.13 1254.43 1120.35C1254.43 1116.58 1259.15 1115.3 1264.92 1117.51C1291.35 1127.66 1390.15 1053.98 1377.52 1033.54C1374.81 1029.16 1375.96 1027.78 1380.16 1030.38C1389.09 1035.9 1398.16 1015.66 1391.56 1004.96C1388.61 1000.19 1390.32 999.532 1396.19 1003.17C1403.11 1007.45 1404.47 1005.01 1401.49 993.619C1399.29 985.204 1400.39 980.107 1403.92 982.297C1407.5 984.509 1410.32 966.502 1410.27 941.54C1410.22 909.602 1405.45 886.597 1393.58 861.096C1375.6 822.487 1314.62 762.802 1299.2 768.721C1294.06 770.692 1289.86 768.87 1289.86 764.68C1289.86 760.483 1285.08 758.888 1279.23 761.135C1273.38 763.376 1268.6 762.525 1268.6 759.235C1268.6 755.946 1247.87 753.252 1222.53 753.252C1197.2 753.252 1176.47 756.23 1176.47 759.874C1176.47 763.518 1173.38 764.588 1169.62 762.263C1160.96 756.91 1113.07 781.071 1096.91 798.943C1085.16 811.945 1086.52 814.257 1132.35 858.927C1175.88 901.364 1181.39 904.654 1195.91 896.926C1204.66 892.269 1210.26 886.895 1208.35 884.988C1206.44 883.074 1212.01 881.769 1220.73 882.074C1239.1 882.726 1268.6 905.696 1268.6 919.357C1268.6 924.504 1271.79 928.715 1275.69 928.715C1279.59 928.715 1282.78 933.692 1282.78 939.768C1282.78 946.333 1279.44 948.764 1274.57 945.751C1268.95 942.271 1267.63 945.489 1270.37 955.974C1272.57 964.389 1271.83 969.706 1268.74 967.792C1265.65 965.885 1259.18 969.068 1254.36 974.875C1249.54 980.681 1235.63 985.403 1223.44 985.374C1204.7 985.325 1185.79 970.557 1100.91 889.646C1045.71 837.028 1001.15 789.997 1001.89 785.133C1004.09 770.649 1014.03 758.08 1020.25 761.922C1028.24 766.871 1092.15 690.9 1085.86 683.924C1083.07 680.841 1084.42 680.387 1088.86 682.925C1103.33 691.191 1173.82 581.879 1166.44 562.624C1164.6 557.825 1166.63 552.713 1170.96 551.267C1175.29 549.821 1179.1 536.868 1179.42 522.47C1179.75 508.078 1182.17 496.296 1184.8 496.281C1187.42 496.267 1189.5 464.358 1189.41 425.366C1189.32 386.374 1186.81 354.472 1183.84 354.472C1180.87 354.472 1179.95 346.496 1181.82 336.748C1183.68 327 1181.95 319.024 1177.96 319.024C1173.97 319.024 1172.51 312.148 1174.7 303.74C1177.42 293.339 1176.1 290.057 1170.58 293.474C1165.31 296.728 1163.94 294.623 1166.67 287.491C1169.01 281.422 1167.19 276.488 1162.63 276.488C1158.09 276.488 1156.21 273.517 1158.45 269.888C1164.41 260.246 1139.95 212.513 1131.68 217.624C1127.82 220.013 1126.57 218.879 1128.91 215.107C1134.65 205.813 1109.6 168.643 1102.15 175.407C1098.9 178.363 1098.59 176.69 1101.48 171.685C1114.5 149.098 937.886 17.284 914.215 31.9166C910.331 34.3199 907.156 32.5617 907.156 28.0174C907.156 23.4731 902.372 21.5873 896.525 23.8347C890.678 26.0749 885.894 24.4515 885.894 20.2191C885.894 15.9867 879.516 14.193 871.72 16.2347C863.924 18.2694 857.546 16.6885 857.546 12.7113C857.546 8.7129 848.049 6.87673 836.284 8.59946C824.591 10.3151 815.023 9.08862 815.023 5.86293C815.023 2.63724 795.888 0 772.5 0C749.112 0 729.977 2.63724 729.977 5.86293ZM823.931 144.589C821.77 148.077 828.453 149.318 838.772 147.347C849.098 145.369 857.546 146.843 857.546 150.622C857.546 154.394 862.33 155.648 868.177 153.401C874.023 151.161 878.807 152.026 878.807 155.329C878.807 162.171 921.826 181.574 930.714 178.746C933.931 177.725 934.746 179.816 932.528 183.404C928.474 189.968 948.176 201.879 959.062 199.454C962.28 198.738 963.173 200.957 961.054 204.388C955.88 212.761 988.254 242.629 995.093 235.787C998.049 232.831 999.551 233.597 998.424 237.496C995.589 247.294 1019.39 290.667 1027.59 290.667C1031.27 290.667 1032.24 295.977 1029.76 302.464C1026.73 310.34 1027.96 312.573 1033.44 309.184C1038.8 305.866 1040.19 307.922 1037.43 315.111C1035.11 321.165 1036.44 326.114 1040.39 326.114C1044.34 326.114 1045.77 332.991 1043.58 341.399C1041.29 350.168 1042.45 354.918 1046.3 352.536C1050.25 350.09 1051.8 358.81 1050.08 373.663C1048.32 388.685 1049.88 397.242 1053.92 394.739C1057.86 392.308 1060.71 403.672 1060.71 421.821C1060.71 439.97 1057.86 451.334 1053.92 448.903C1049.87 446.393 1048.34 455.12 1050.13 470.483C1051.78 484.662 1050.22 496.26 1046.65 496.26C1043.08 496.26 1041.83 502.641 1043.87 510.439C1045.9 518.237 1044.89 524.618 1041.63 524.618C1038.35 524.618 1033.58 531.225 1031.02 539.307C1028.46 547.382 1012.51 570.997 995.589 591.783C978.672 612.562 967 631.987 969.65 634.944C972.308 637.9 970.933 638.297 966.589 635.816C962.237 633.334 945.143 647.378 928.559 667.052L898.439 702.789L882.712 688.015C874.066 679.891 866.993 668.682 866.993 663.103C866.993 657.516 884.803 636.042 906.568 615.37L946.135 577.789L910.7 617.029C876.362 655.056 876.653 654.893 920.104 611.924C947.617 584.715 962.946 564.333 959.764 559.179C956.688 554.202 957.602 552.657 962.018 555.386C970.947 560.909 980.019 540.668 973.414 529.97C970.834 525.802 972.067 524.476 976.178 527.021C984.491 532.161 995.015 499.457 988.46 488.845C986.156 485.123 987.659 482.081 991.784 482.081C996.156 482.081 999.289 465.804 999.289 443.089C999.289 421.644 996.397 404.098 992.868 404.098C989.331 404.098 988.112 397.717 990.146 389.919C992.301 381.681 990.366 375.74 985.526 375.74C980.94 375.74 979.013 372.791 981.245 369.182C987.241 359.477 970.047 325.83 961.72 330.977C957.794 333.409 956.731 331.899 959.374 327.631C965.604 317.543 922.216 268.016 912.436 274.063C908.148 276.715 907.057 275.297 909.87 270.745C912.868 265.889 900.253 255.404 877.298 243.692C846.22 227.826 829.268 224.302 777.922 223.019C743.875 222.176 717.567 223.983 719.467 227.053C721.359 230.123 716.03 230.832 707.617 228.627C696.228 225.649 693.79 227.004 698.071 233.93C701.735 239.864 701.047 241.516 696.164 238.503C685.682 232.023 651.395 248.47 656.88 257.353C659.311 261.281 657.816 262.344 653.563 259.721C642.635 252.965 585.47 308.816 592.182 319.677C595.264 324.668 594.556 326.475 590.495 323.966C582.224 318.854 557.773 366.587 563.727 376.229C565.973 379.859 564.06 382.829 559.474 382.829C554.414 382.829 552.472 389.777 554.534 400.553C556.398 410.301 555.172 418.276 551.813 418.276C548.461 418.276 545.711 429.442 545.711 443.089C545.711 456.737 548.603 467.902 552.132 467.902C555.669 467.902 557.001 473.872 555.087 481.174C550.523 498.642 580.601 568.324 590.162 562.419C594.272 559.874 595.399 561.292 592.72 565.63C590.084 569.898 607.249 594.059 630.87 619.318C655.888 646.067 670.693 667.165 666.341 669.859C662.238 672.397 661.012 677.941 663.627 682.173C666.356 686.59 665.108 687.838 660.693 685.108C656.462 682.492 650.927 683.705 648.397 687.795C645.654 692.247 638.163 688.072 629.786 677.416C622.075 667.612 613.556 660.324 610.856 661.224C608.163 662.124 604.782 659.672 603.358 655.772C598.567 642.678 557.291 599.057 549.687 599.057C545.548 599.057 541.891 595.867 541.558 591.967C540.247 576.846 529.751 560.334 523.791 564.021C520.346 566.148 519.623 562.419 522.189 555.726C525.335 547.524 524.18 545.213 518.645 548.637C513.117 552.054 511.962 549.743 515.102 541.547C518.085 533.777 517.015 531.083 512.139 534.096C507.199 537.152 505.924 533.416 508.511 523.519C510.963 514.147 509.73 509.943 505.328 512.658C500.878 515.409 499.496 510.035 501.693 498.536C503.649 488.327 502.387 481.741 498.9 483.896C495.35 486.094 492.557 460.033 492.557 424.692C492.557 389.968 495.321 361.561 498.702 361.561C502.075 361.561 503.174 355.18 501.133 347.382C499.099 339.584 500.587 333.203 504.443 333.203C508.298 333.203 510.148 329.283 508.553 324.497C506.958 319.705 508.369 312.53 511.693 308.546C515.01 304.562 529.616 283.91 544.145 262.649C558.673 241.395 583.911 213.817 600.225 201.368C616.547 188.919 627.695 176.534 625.009 173.847C622.323 171.16 623.315 169.813 627.213 170.848C638.333 173.797 694.435 154.443 690.983 148.85C689.275 146.092 695.76 145.34 705.385 147.184C715.016 149.027 722.897 147.765 722.904 144.39C722.918 141.009 746.533 138.244 775.391 138.244C804.47 138.244 826.107 141.073 823.931 144.589ZM793.761 356.244C793.761 359.165 798.687 361.561 804.711 361.561C810.735 361.561 823.301 369.196 832.634 378.533C841.968 387.87 851.557 393.548 853.946 391.152C856.341 388.763 855.987 392.818 853.173 400.163C850.111 408.146 850.799 411.811 854.888 409.287C859.183 406.628 859.998 420.07 857.078 445.344C854.513 467.498 854.087 488.816 856.121 492.715C858.155 496.615 857.652 497.884 855.009 495.544C852.365 493.198 833.053 508.582 812.082 529.722C789.056 552.94 772.075 565.106 769.197 560.455C766.575 556.215 761.827 554.358 758.638 556.329C755.455 558.3 748.907 555.159 744.088 549.353C739.268 543.547 737.908 538.797 741.068 538.797C744.222 538.797 737.745 529.339 726.674 517.784C715.604 506.221 703.769 498.486 700.367 500.585C696.972 502.683 694.648 501.776 695.207 498.557C697.674 484.343 694.074 467.357 689.226 470.348C686.299 472.156 683.911 459.891 683.911 443.089C683.911 426.287 686.299 414.023 689.226 415.831C692.153 417.631 694.541 414.632 694.541 409.159C694.541 403.686 700.842 393.499 708.546 386.523C716.249 379.554 720.544 370.586 718.085 366.609C715.519 362.461 717.107 361.533 721.791 364.432C726.292 367.211 729.977 366.212 729.977 362.199C729.977 358.193 734.761 356.754 740.608 358.995C746.455 361.242 751.239 360.342 751.239 357.002C751.239 353.663 760.806 350.927 772.5 350.927C784.194 350.927 793.761 353.323 793.761 356.244ZM882.351 680.585C889.403 688.384 896.773 694.764 898.722 694.764C900.671 694.764 896.49 688.384 889.438 680.585C882.386 672.787 875.016 666.406 873.067 666.406C871.118 666.406 875.299 672.787 882.351 680.585ZM788.226 812.399L769.289 836.128L749.672 817.326L730.055 798.525L753.053 779.164L776.044 759.796L791.6 774.23L807.156 788.664L788.226 812.399ZM751.239 811.74C760.395 821.488 769.481 829.463 771.43 829.463C773.379 829.463 767.482 821.488 758.326 811.74C749.169 801.992 740.083 794.016 738.134 794.016C736.185 794.016 742.082 801.992 751.239 811.74ZM1059.53 1027.97C1082.68 1051.36 1100.01 1070.5 1098.06 1070.5C1096.11 1070.5 1075.59 1051.36 1052.44 1027.97C1029.3 1004.57 1011.96 985.431 1013.91 985.431C1015.86 985.431 1036.38 1004.57 1059.53 1027.97ZM199.348 1068.73C208.157 1079.98 207.909 1080.22 196.669 1071.41C189.844 1066.06 184.266 1060.47 184.266 1059C184.266 1053.17 190.085 1056.92 199.348 1068.73ZM1360.73 1059C1360.73 1060.47 1355.15 1066.06 1348.33 1071.41C1337.09 1080.22 1336.84 1079.98 1345.65 1068.73C1354.92 1056.92 1360.73 1053.17 1360.73 1059ZM1063.07 1125.15C1063.07 1130.47 1056.71 1124.84 1027.34 1093.54L995.745 1059.87L1029.41 1091.47C1047.93 1108.86 1063.07 1124.02 1063.07 1125.15ZM489.014 1122.17C489.014 1123.29 472.267 1140.04 451.806 1159.39L414.599 1194.57L449.765 1157.35C482.451 1122.77 489.014 1116.88 489.014 1122.17ZM610.615 1205.2C610.615 1214.95 612.224 1218.94 614.187 1214.07C616.157 1209.19 616.157 1201.22 614.187 1196.34C612.224 1191.47 610.615 1195.46 610.615 1205.2ZM610.877 1258.37C611.019 1270.07 612.607 1274 614.407 1267.1C616.207 1260.2 616.086 1250.63 614.145 1245.83C612.203 1241.03 610.736 1246.68 610.877 1258.37ZM1130.4 1361.17C1153.55 1384.57 1170.88 1403.71 1168.93 1403.71C1166.99 1403.71 1146.46 1384.57 1123.31 1361.17C1100.17 1337.78 1082.83 1318.63 1084.78 1318.63C1086.73 1318.63 1107.25 1337.78 1130.4 1361.17ZM382.706 1398.63C382.706 1399.74 364.372 1418.08 341.955 1439.4L301.204 1478.15L339.943 1437.38C375.931 1399.51 382.706 1393.37 382.706 1398.63ZM610.055 1521.27C610.396 1529.53 612.075 1531.21 614.336 1525.56C616.384 1520.44 616.129 1514.32 613.776 1511.97C611.423 1509.62 609.751 1513.8 610.055 1521.27ZM508.029 1561.01C505.768 1566.66 504.088 1564.98 503.748 1556.72C503.443 1549.25 505.116 1545.06 507.469 1547.42C509.822 1549.77 510.077 1555.89 508.029 1561.01Z" fill="#D6D6D6"/>
</svg>
