<svg width="32" height="32" viewBox="0 0 32 32" fill="none" xmlns="http://www.w3.org/2000/svg">
<circle cx="16" cy="16" r="16" fill="#FFD100"/>
<path d="M21.9803 11.3737C22.3708 10.9832 22.3708 10.35 21.9803 9.95952C21.5898 9.56899 20.9566 9.56899 20.5661 9.95952L21.9803 11.3737ZM9.66659 21.2732C9.66659 21.8255 10.1143 22.2732 10.6666 22.2732H19.6666C20.2189 22.2732 20.6666 21.8255 20.6666 21.2732C20.6666 20.7209 20.2189 20.2732 19.6666 20.2732H11.6666V12.2732C11.6666 11.7209 11.2189 11.2732 10.6666 11.2732C10.1143 11.2732 9.66659 11.7209 9.66659 12.2732V21.2732ZM20.5661 9.95952L9.95949 20.5661L11.3737 21.9803L21.9803 11.3737L20.5661 9.95952Z" fill="black"/>
</svg>
