<svg width="40" height="46" viewBox="0 0 40 46" fill="none" xmlns="http://www.w3.org/2000/svg">
<path fill-rule="evenodd" clip-rule="evenodd" d="M18.8991 0.15176C18.8991 0.235256 18.6514 0.267003 18.3486 0.222594C18.044 0.178002 17.7982 0.225531 17.7982 0.329029C17.7982 0.431977 17.633 0.472898 17.4312 0.420231C17.218 0.364445 17.0642 0.414544 17.0642 0.539879C17.0642 0.658609 16.9818 0.704852 16.8813 0.642643C16.6147 0.477853 14.4804 1.4787 14.6191 1.70332C14.6831 1.807 14.6506 1.8393 14.5466 1.77507C14.2816 1.6112 13.1031 2.50671 12.0149 3.69896C11.0226 4.78624 9.81541 6.85804 10 7.15679C10.0624 7.25772 10.0171 7.3403 9.89945 7.3403C9.78183 7.3403 9.73101 7.45885 9.78661 7.60363C9.8422 7.74861 9.79358 7.89853 9.67871 7.9367C9.56385 7.97505 9.46532 8.3518 9.45963 8.77386C9.45413 9.19593 9.38771 9.54147 9.31193 9.54184C9.23615 9.54221 9.17431 10.203 9.17431 11.0105C9.17431 11.8179 9.24257 12.4785 9.32605 12.4785C9.40954 12.4785 9.43963 12.738 9.39303 13.0551C9.33871 13.426 9.3767 13.5897 9.49945 13.5137C9.61743 13.4406 9.65376 13.5361 9.5945 13.7629C9.54165 13.9647 9.58807 14.1301 9.69761 14.1301C9.80715 14.1301 9.84917 14.2539 9.79119 14.4053C9.73303 14.5567 9.78183 14.6806 9.89945 14.6806C10.0171 14.6806 10.0659 14.7575 10.0077 14.8514C9.85358 15.101 10.4866 16.3366 10.7007 16.2043C10.8007 16.1424 10.8283 16.1795 10.7622 16.2865C10.6961 16.3933 10.9387 16.8396 11.3015 17.2782C12.1136 18.2603 12.4042 18.548 12.1993 18.1672C12.1116 18.0041 12.1193 17.9544 12.2183 18.0448C12.3101 18.1291 12.3853 18.2581 12.3853 18.3317C12.3853 18.6429 13.9969 20.3603 14.1916 20.2567C14.3083 20.1945 13.2002 21.3511 11.7292 22.8271C10.2584 24.3028 9.07651 25.532 9.10293 25.5586C9.12954 25.5852 8.83156 25.5764 8.44092 25.5391C7.58147 25.4571 7.22257 25.0882 7.12294 24.1843C7.08165 23.8096 7.08202 23.5372 7.12367 23.5791C7.16551 23.6209 7.31083 23.5558 7.44661 23.4343C7.95872 22.977 8.17486 22.845 8.50459 22.7885C8.69138 22.7566 8.80165 22.7992 8.74973 22.8834C8.69762 22.9674 8.84954 23.128 9.08715 23.2401C9.48238 23.4266 9.62128 23.3389 10.7171 22.2085L11.915 20.9729L11.5079 20.6009C10.9492 20.09 9.9356 19.5968 9.71945 19.7304C9.62147 19.7909 9.54128 19.7573 9.54128 19.6557C9.54128 19.5513 9.0433 19.4718 8.3945 19.4731C7.15394 19.4753 5.18734 20.1878 5.41321 20.5534C5.47853 20.6589 5.43174 20.7228 5.30954 20.6951C5.0011 20.6251 3.81174 22.1987 3.93339 22.5158C3.99541 22.6775 3.95394 22.7254 3.8222 22.6441C3.67926 22.5556 3.64495 22.6406 3.71541 22.9098C3.77229 23.1275 3.74404 23.3055 3.65248 23.3055C3.5611 23.3055 3.48624 23.7596 3.48624 24.3148C3.48624 24.8699 3.56624 25.324 3.66404 25.324C3.76165 25.324 3.79413 25.4479 3.73615 25.5993C3.67798 25.7507 3.71927 25.8746 3.82789 25.8746C3.93633 25.8746 3.98367 25.9828 3.93285 26.1151C3.71395 26.686 6.09596 29.0338 6.58642 28.7307C6.68055 28.6725 6.79064 28.7237 6.83083 28.8446C6.92679 29.1322 9.3578 29.3021 9.3578 29.0214C9.3578 28.9118 9.48165 28.8698 9.63303 28.9278C9.7844 28.9859 9.90826 28.9371 9.90826 28.8195C9.90826 28.7019 9.9833 28.652 10.0752 28.7087C10.3308 28.8667 10.8393 28.6141 10.7046 28.3961C10.6391 28.2901 10.6723 28.257 10.7782 28.3226C10.8842 28.3881 11.1653 28.2706 11.4029 28.0616C11.6405 27.8526 11.7189 27.7419 11.5771 27.8157C11.4062 27.9047 11.364 27.8775 11.4523 27.735C11.5253 27.6168 11.6468 27.5584 11.7224 27.605C11.798 27.6518 12.8851 26.6622 14.1382 25.4061C15.3912 24.1498 16.5081 23.122 16.6202 23.122C16.8927 23.122 17.4857 23.7903 17.4042 24.0055C17.3686 24.0995 14.6791 26.7881 11.4277 29.9802C6.29486 35.0193 5.44275 35.784 4.95982 35.784C4.65395 35.784 4.24532 35.6256 4.05193 35.4322C3.85853 35.2388 3.67284 35.1081 3.63908 35.1417C3.6055 35.1753 3.57798 34.8863 3.57798 34.4994C3.57798 34.1126 3.6055 33.8236 3.63908 33.8571C3.67284 33.8907 3.85853 33.7601 4.05193 33.5667C4.44422 33.1743 5.15083 33.1108 5.72257 33.4167C6.05395 33.5942 6.24183 33.4778 7.27009 32.4586C7.91376 31.8206 8.44037 31.2324 8.44037 31.1517C8.44037 30.9023 6.72037 29.8987 6.46257 29.9978C6.31523 30.0543 6.27009 30.0092 6.34807 29.8831C6.43596 29.7405 6.32349 29.7044 5.99064 29.7679C5.7233 29.8191 5.50459 29.7897 5.50459 29.7027C5.50459 29.6159 5.21064 29.5447 4.85156 29.5447C4.42073 29.5447 4.24128 29.6139 4.32404 29.7479C4.40881 29.8849 4.32129 29.9103 4.05468 29.8257C3.49156 29.6469 2.17817 30.3327 1.36991 31.2273C0.628441 32.0483 0.107341 33.1187 0.257983 33.5116C0.311561 33.6512 0.275412 33.7654 0.177797 33.7654C0.0799989 33.7654 0 34.0957 0 34.4994C0 34.9031 0.0799989 35.2334 0.177797 35.2334C0.275412 35.2334 0.308624 35.3557 0.251193 35.505C0.0858722 35.9361 0.870643 37.3506 1.68239 38.0841C2.53046 38.8502 3.56697 39.3403 4.06459 39.2102C4.25101 39.1614 4.40367 39.1963 4.40367 39.2879C4.40367 39.3792 4.65138 39.4541 4.95413 39.4541C5.25688 39.4541 5.50459 39.3829 5.50459 39.2961C5.50459 39.2091 5.7233 39.1798 5.99064 39.231C6.32349 39.2945 6.43596 39.2583 6.34807 39.1157C6.27083 38.991 6.31486 38.9436 6.45835 38.9976C6.95027 39.1823 8.18018 38.1444 12.1086 34.2298L16.1468 30.2057L16.1339 35.4263C16.1255 38.8221 16.0609 40.5187 15.949 40.2799C15.8081 39.9793 15.7879 40.0191 15.8369 40.4996C15.8699 40.8224 15.8387 41.0503 15.7673 41.0062C15.6961 40.9622 15.536 41.0492 15.4112 41.1995C15.0941 41.5815 14.0664 41.5441 13.6982 41.1371C13.2488 40.6405 13.3066 39.5956 13.8073 39.166C14.0345 38.9713 14.344 38.8118 14.4954 38.8118C14.7147 38.8118 14.7813 38.4902 14.8233 37.2278L14.876 35.644L14.2002 35.5172C13.8284 35.4474 13.4745 35.4582 13.4136 35.5412C13.3527 35.6243 13.1996 35.7005 13.0734 35.7106C12.9473 35.7207 12.7317 35.7412 12.5947 35.7564C11.7754 35.8469 9.73981 38.3835 9.98147 39.0131C10.0358 39.1548 10.0002 39.2706 9.90257 39.2706C9.80477 39.2706 9.72477 39.7248 9.72477 40.2799C9.72477 40.835 9.80477 41.2892 9.90257 41.2892C10.0002 41.2892 10.0327 41.4131 9.97468 41.5645C9.91651 41.7159 9.9578 41.8397 10.0664 41.8397C10.175 41.8397 10.211 41.977 10.1466 42.1451C10.0615 42.3668 10.096 42.4093 10.2725 42.3003C10.4354 42.1994 10.4716 42.2209 10.3826 42.3651C10.0319 42.9325 12.7822 45.1632 13.495 44.8896C13.6417 44.8333 13.7615 44.8674 13.7615 44.965C13.7615 45.0628 14.133 45.1429 14.5872 45.1429C15.0413 45.1429 15.4128 45.068 15.4128 44.9766C15.4128 44.885 15.5657 44.8502 15.7525 44.899C15.9393 44.9478 16.2095 44.8782 16.3532 44.7443C16.4967 44.6101 16.7361 44.4734 16.8851 44.4402C17.6835 44.2626 19.2594 42.4578 18.9928 42.0265C18.9294 41.9238 18.9738 41.8397 19.0914 41.8397C19.209 41.8397 19.2578 41.7159 19.1996 41.5645C19.1417 41.4131 19.176 41.2892 19.276 41.2892C19.3939 41.2892 19.4402 38.7473 19.4079 34.0581C19.3804 30.0809 19.4105 26.8595 19.4747 26.8993C19.5389 26.9391 19.6943 26.8475 19.82 26.6961C19.9939 26.4866 20.1088 26.4704 20.2996 26.6288C20.5039 26.7983 20.5505 28.1613 20.5505 33.9713C20.5505 38.4511 20.6165 41.1057 20.7283 41.1057C20.8259 41.1057 20.8613 41.222 20.8066 41.3644C20.4512 42.2908 23.4033 45.2418 24.3297 44.8861C24.4714 44.8318 24.5872 44.8674 24.5872 44.965C24.5872 45.0628 25.005 45.1429 25.5154 45.1429C26.0259 45.1429 26.4057 45.081 26.3591 45.0052C26.3127 44.9294 26.5051 44.8593 26.787 44.8491C27.3974 44.827 28.6714 44.0837 28.5196 43.8381C28.4611 43.7432 28.5174 43.6884 28.6448 43.7161C28.9431 43.781 30.1363 42.037 30.0132 41.716C29.9618 41.5823 29.9826 41.4727 30.0593 41.4727C30.136 41.4727 30.204 40.8972 30.2105 40.1937C30.2169 39.4903 30.1525 38.9577 30.0673 39.0104C29.9822 39.0631 29.9624 38.9759 30.0235 38.8168C30.0857 38.6546 29.9262 38.2127 29.6604 37.811C28.6083 36.2209 27.096 35.3019 25.8719 35.5087L25.1376 35.6328V37.1542V38.6755L25.7339 38.9249C26.062 39.0621 26.3983 39.1526 26.4815 39.1262C26.5648 39.0998 26.5846 39.1559 26.5257 39.2513C26.4668 39.3466 26.5226 39.5345 26.6497 39.6686C26.8961 39.9292 27.0018 40.7785 26.7699 40.6352C26.6939 40.5882 26.5793 40.7159 26.5147 40.9191C26.3787 41.3477 25.8171 41.5287 24.9349 41.4281L24.3119 41.3571L24.2594 35.9556L24.2068 30.554L28.2345 34.5658C30.8982 37.219 32.3393 38.53 32.4897 38.4369C32.6246 38.3536 32.6706 38.3718 32.6029 38.4813C32.4697 38.697 33.3406 39.1422 33.5917 38.9869C33.6851 38.9291 33.7615 38.979 33.7615 39.0978C33.7615 39.228 33.9406 39.2792 34.2147 39.2268C34.4639 39.179 34.6242 39.2108 34.5708 39.297C34.5174 39.3835 34.7312 39.4541 35.0459 39.4541C35.3747 39.4541 35.5705 39.3772 35.5062 39.2734C35.4376 39.1623 35.5985 39.1334 35.9242 39.1985C36.2609 39.2658 36.5488 39.2095 36.7147 39.0434C36.8583 38.8997 37.064 38.8118 37.1721 38.8478C37.4486 38.9399 39.0391 37.5016 39.3714 36.8586C39.5235 36.5644 39.5985 36.2435 39.538 36.1457C39.4774 36.0477 39.5242 35.9675 39.6418 35.9675C39.7594 35.9675 39.8083 35.8436 39.7501 35.6922C39.6921 35.5408 39.7246 35.417 39.8222 35.417C39.92 35.417 40 35.0041 40 34.4994C40 33.9948 39.9251 33.5819 39.8338 33.5819C39.7422 33.5819 39.7139 33.4039 39.7708 33.1862C39.8479 32.8913 39.8128 32.8284 39.6336 32.9392C39.4763 33.0365 39.4371 33.0165 39.5204 32.8816C39.9077 32.2549 37.3176 29.6201 36.6934 30.0059C36.5947 30.067 36.5138 30.0198 36.5138 29.9011C36.5138 29.7757 36.36 29.7257 36.1468 29.7814C35.945 29.8341 35.7798 29.8025 35.7798 29.711C35.7798 29.6196 35.4908 29.5447 35.1376 29.5447C34.7844 29.5447 34.4954 29.6328 34.4954 29.7405C34.4954 29.8528 34.3391 29.8868 34.1295 29.8203C33.8993 29.7473 33.4217 29.8903 32.842 30.2059C31.3327 31.0273 31.3312 31.0566 32.7246 32.4469C33.7246 33.4444 33.9872 33.6223 34.1303 33.3984C34.2272 33.247 34.3075 33.1739 34.3092 33.2362C34.3106 33.2982 34.64 33.2892 35.0409 33.2158C35.4418 33.1424 35.7439 33.1328 35.7123 33.1945C35.6473 33.3208 36.2657 33.9524 36.3609 33.8571C36.3945 33.8236 36.422 34.1126 36.422 34.4994C36.422 34.8863 36.3888 35.1698 36.3484 35.1292C36.3079 35.0888 36.1818 35.1828 36.0683 35.3382C35.8295 35.6647 34.4242 36.0477 34.6185 35.7331C34.6938 35.6113 34.6253 35.5817 34.436 35.6544C34.2692 35.7185 34.1525 35.7095 34.1765 35.6344C34.2398 35.437 22.5477 23.938 22.345 23.9982C22.2512 24.0259 22.2303 23.9584 22.2983 23.8483C22.3664 23.7382 22.4695 23.6956 22.5277 23.7538C22.5859 23.8118 22.8272 23.6771 23.0642 23.4545L23.495 23.0496L24.6475 24.192C25.2815 24.8203 25.8706 25.2701 25.9571 25.1916C26.0433 25.113 26.0607 25.142 25.9958 25.2558C25.8376 25.5329 28.7094 28.2706 29.6 28.692C29.9855 28.8744 30.4189 28.9782 30.5633 28.923C30.7075 28.8676 30.8257 28.9023 30.8257 28.9999C30.8257 29.0977 31.1972 29.1777 31.6514 29.1777C32.1055 29.1777 32.4771 29.0977 32.4771 28.9999C32.4771 28.9023 32.5993 28.869 32.7486 28.9265C33.433 29.1891 35.9908 27.2819 35.6639 26.7528C35.5938 26.6394 35.6235 26.6038 35.7323 26.671C35.9635 26.8139 36.1983 26.29 36.0273 26.0131C35.951 25.8896 35.9952 25.8725 36.1473 25.9667C36.3266 26.0775 36.3617 26.0144 36.2846 25.7195C36.2275 25.5017 36.256 25.3697 36.3473 25.4264C36.4402 25.4837 36.513 25.0176 36.5119 24.3715C36.5106 23.5448 36.3872 22.9493 36.0796 22.2892C35.6143 21.2898 34.0356 19.7449 33.6361 19.8981C33.5033 19.9491 33.3945 19.9019 33.3945 19.7935C33.3945 19.6849 33.2706 19.6436 33.1193 19.7017C32.9679 19.7597 32.844 19.7377 32.844 19.6526C32.844 19.5674 32.3073 19.4977 31.6514 19.4977C30.9954 19.4977 30.4587 19.5748 30.4587 19.6691C30.4587 19.7634 30.3789 19.7911 30.2815 19.7309C30.0572 19.5924 28.8174 20.2178 28.3991 20.6804C28.0947 21.0169 28.1299 21.0768 29.3165 22.233C30.4435 23.3315 30.5862 23.4167 30.9622 23.2166C31.1886 23.0961 31.3336 22.957 31.284 22.9076C31.2347 22.8581 31.3789 22.8243 31.6046 22.8322C32.0802 22.8491 32.844 23.4436 32.844 23.7973C32.844 23.9305 32.9266 24.0395 33.0275 24.0395C33.1284 24.0395 33.211 24.1683 33.211 24.3256C33.211 24.4955 33.1248 24.5585 32.9985 24.4805C32.853 24.3904 32.8189 24.4737 32.8897 24.7451C32.9468 24.9629 32.9277 25.1005 32.8477 25.051C32.7677 25.0016 32.6002 25.084 32.4754 25.2343C32.3506 25.3846 31.9905 25.5068 31.6749 25.5061C31.1895 25.5048 30.7 25.1226 28.5026 23.0282C27.0734 21.6662 25.9198 20.4488 25.9389 20.3229C25.9958 19.948 26.2532 19.6226 26.4141 19.7221C26.6211 19.8502 28.2758 17.8837 28.1128 17.7032C28.0407 17.6233 28.0756 17.6116 28.1906 17.6773C28.5651 17.8913 30.3903 15.0617 30.1991 14.5633C30.1514 14.4391 30.204 14.3068 30.3161 14.2694C30.4283 14.2319 30.5268 13.8967 30.5352 13.524C30.5437 13.1514 30.6062 12.8464 30.6743 12.8461C30.7424 12.8457 30.7961 12.0197 30.7938 11.0105C30.7914 10.0012 30.7264 9.17538 30.6495 9.17538C30.5727 9.17538 30.549 8.96893 30.5972 8.71661C30.6455 8.46429 30.6005 8.25784 30.4972 8.25784C30.3941 8.25784 30.3561 8.07984 30.413 7.8622C30.4835 7.59299 30.4492 7.50803 30.3062 7.59648C30.1699 7.68071 30.1343 7.62621 30.2051 7.4416C30.2655 7.28452 30.2185 7.15679 30.1006 7.15679C29.9829 7.15679 29.9341 7.0799 29.9923 6.98595C30.1464 6.73638 29.5134 5.50082 29.2993 5.63313C29.1993 5.69497 29.167 5.66561 29.2273 5.56799C29.376 5.32741 28.7275 4.36528 28.5347 4.54034C28.4505 4.61687 28.4426 4.57356 28.5172 4.444C28.8543 3.85935 24.2818 0.447391 23.669 0.826151C23.5684 0.88836 23.4862 0.842849 23.4862 0.725221C23.4862 0.607593 23.3624 0.55878 23.211 0.616952C23.0596 0.674941 22.9358 0.632918 22.9358 0.523364C22.9358 0.41381 22.7706 0.367381 22.5688 0.420231C22.367 0.472898 22.2018 0.431977 22.2018 0.329029C22.2018 0.225531 21.956 0.178002 21.6514 0.222594C21.3486 0.267003 21.1009 0.235256 21.1009 0.15176C21.1009 0.068264 20.6055 0 20 0C19.3945 0 18.8991 0.068264 18.8991 0.15176ZM21.3316 3.74264C21.2756 3.83292 21.4486 3.86504 21.7158 3.81402C21.9831 3.76282 22.2018 3.80099 22.2018 3.8988C22.2018 3.99643 22.3257 4.02891 22.4771 3.97074C22.6284 3.91275 22.7523 3.93514 22.7523 4.02065C22.7523 4.19774 23.8661 4.7 24.0961 4.62678C24.1795 4.60035 24.2005 4.65448 24.1431 4.74734C24.0382 4.91727 24.5483 5.22556 24.8301 5.1628C24.9134 5.14427 24.9365 5.20171 24.8817 5.29052C24.7477 5.50725 25.5859 6.28036 25.7629 6.10328C25.8394 6.02676 25.8783 6.04657 25.8492 6.1475C25.7758 6.40111 26.3919 7.52381 26.6044 7.52381C26.6996 7.52381 26.7248 7.66126 26.6604 7.82917C26.582 8.03304 26.6138 8.09085 26.7558 8.00313C26.8945 7.91725 26.9305 7.97047 26.8591 8.15654C26.7989 8.31326 26.8334 8.44135 26.9356 8.44135C27.038 8.44135 27.075 8.61935 27.0182 8.83699C26.9589 9.06399 26.989 9.18694 27.0886 9.12528C27.191 9.06197 27.2312 9.28768 27.1864 9.67213C27.1409 10.061 27.1813 10.2825 27.2859 10.2177C27.3879 10.1548 27.4618 10.4489 27.4618 10.9187C27.4618 11.3885 27.3879 11.6826 27.2859 11.6197C27.1811 11.5547 27.1415 11.7806 27.1879 12.1783C27.2306 12.5453 27.1901 12.8455 27.0978 12.8455C27.0053 12.8455 26.9728 13.0107 27.0257 13.2125C27.0784 13.4144 27.0523 13.5796 26.9677 13.5796C26.8829 13.5796 26.7594 13.7506 26.693 13.9598C26.6268 14.1688 26.2139 14.7801 25.7758 15.3181C25.3378 15.856 25.0356 16.3588 25.1042 16.4353C25.173 16.5118 25.1374 16.5221 25.025 16.4579C24.9123 16.3936 24.4697 16.7572 24.0404 17.2664L23.2605 18.1915L22.8534 17.809C22.6295 17.5987 22.4464 17.3086 22.4464 17.1642C22.4464 17.0196 22.9075 16.4637 23.471 15.9286L24.4954 14.9559L23.578 15.9716C22.689 16.9559 22.6965 16.9517 23.8215 15.8395C24.5338 15.1352 24.9306 14.6076 24.8483 14.4742C24.7686 14.3453 24.7923 14.3053 24.9066 14.376C25.1378 14.5189 25.3727 13.995 25.2017 13.7181C25.1349 13.6102 25.1668 13.5759 25.2732 13.6418C25.4884 13.7748 25.7609 12.9283 25.5912 12.6536C25.5316 12.5572 25.5705 12.4785 25.6772 12.4785C25.7905 12.4785 25.8716 12.0572 25.8716 11.4692C25.8716 10.9141 25.7967 10.4599 25.7053 10.4599C25.6138 10.4599 25.5822 10.2948 25.6349 10.0929C25.6906 9.87968 25.6406 9.7259 25.5152 9.7259C25.3965 9.7259 25.3466 9.64956 25.4044 9.55616C25.5596 9.30493 25.1145 8.43401 24.8989 8.56723C24.7972 8.63018 24.7697 8.59109 24.8382 8.48062C24.9995 8.21949 23.8761 6.9375 23.6229 7.09404C23.5119 7.16267 23.4837 7.12597 23.5565 7.00815C23.6341 6.88245 23.3075 6.61104 22.7132 6.30789C21.9086 5.8972 21.4697 5.80599 20.1404 5.77278C19.2589 5.75094 18.5778 5.79774 18.627 5.87719C18.676 5.95665 18.538 5.975 18.3202 5.91793C18.0253 5.84086 17.9622 5.87591 18.073 6.0552C18.1679 6.20879 18.1501 6.25155 18.0237 6.17356C17.7523 6.00583 16.8646 6.43157 17.0066 6.66151C17.0695 6.76317 17.0308 6.7907 16.9207 6.7228C16.6378 6.54792 15.1578 7.99359 15.3316 8.27472C15.4114 8.40391 15.393 8.45071 15.2879 8.38575C15.0738 8.25344 14.4407 9.48899 14.5949 9.73856C14.653 9.83252 14.6035 9.90941 14.4848 9.90941C14.3538 9.90941 14.3035 10.0892 14.3569 10.3682C14.4051 10.6205 14.3734 10.8269 14.2864 10.8269C14.1996 10.8269 14.1284 11.116 14.1284 11.4692C14.1284 11.8225 14.2033 12.1115 14.2947 12.1115C14.3862 12.1115 14.4207 12.266 14.3712 12.455C14.253 12.9072 15.0317 14.7109 15.2793 14.558C15.3857 14.4921 15.4149 14.5288 15.3455 14.6412C15.2772 14.7516 15.7217 15.377 16.3332 16.0309C16.9809 16.7232 17.3642 17.2693 17.2516 17.3391C17.1453 17.4048 17.1136 17.5483 17.1813 17.6578C17.2519 17.7722 17.2196 17.8045 17.1053 17.7338C16.9958 17.6661 16.8525 17.6975 16.787 17.8034C16.716 17.9186 16.522 17.8105 16.3051 17.5347C16.1055 17.2809 15.885 17.0923 15.815 17.1156C15.7453 17.1389 15.6578 17.0754 15.6209 16.9744C15.4969 16.6355 14.4283 15.5064 14.2314 15.5064C14.1242 15.5064 14.0295 15.4238 14.0209 15.3229C13.987 14.9315 13.7152 14.5041 13.5609 14.5995C13.4717 14.6545 13.453 14.558 13.5194 14.3848C13.6009 14.1725 13.571 14.1126 13.4277 14.2013C13.2846 14.2897 13.2547 14.2299 13.336 14.0178C13.4132 13.8167 13.3855 13.7469 13.2593 13.8249C13.1314 13.904 13.0983 13.8073 13.1653 13.5511C13.2288 13.3085 13.1969 13.1997 13.0829 13.27C12.9677 13.3412 12.9319 13.2021 12.9888 12.9044C13.0394 12.6402 13.0068 12.4697 12.9165 12.5255C12.8246 12.5824 12.7523 11.9078 12.7523 10.993C12.7523 10.0942 12.8239 9.35888 12.9114 9.35888C12.9987 9.35888 13.0272 9.19373 12.9743 8.99187C12.9216 8.79001 12.9602 8.62486 13.06 8.62486C13.1598 8.62486 13.2077 8.52338 13.1664 8.39951C13.1251 8.27546 13.1617 8.08975 13.2477 7.98662C13.3336 7.88348 13.7117 7.34893 14.0879 6.79859C14.464 6.24843 15.1174 5.53459 15.5398 5.21235C15.9624 4.89011 16.251 4.56952 16.1815 4.49997C16.1119 4.43042 16.1376 4.39556 16.2385 4.42235C16.5264 4.49869 17.9789 3.99771 17.8895 3.85292C17.8453 3.78154 18.0132 3.76209 18.2624 3.8098C18.5117 3.85751 18.7158 3.82485 18.716 3.7375C18.7163 3.64997 19.3277 3.5784 20.0749 3.5784C20.8277 3.5784 21.3879 3.65162 21.3316 3.74264ZM20.5505 9.22125C20.5505 9.29686 20.678 9.35888 20.8339 9.35888C20.9899 9.35888 21.3152 9.55652 21.5569 9.7982C21.7985 10.0399 22.0468 10.1869 22.1086 10.1248C22.1706 10.063 22.1615 10.168 22.0886 10.3581C22.0094 10.5647 22.0272 10.6596 22.133 10.5943C22.2442 10.5254 22.2653 10.8734 22.1897 11.5276C22.1233 12.101 22.1123 12.6528 22.165 12.7538C22.2176 12.8547 22.2046 12.8876 22.1361 12.827C22.0677 12.7663 21.5677 13.1645 21.0248 13.7117C20.4286 14.3127 19.989 14.6276 19.9145 14.5072C19.8466 14.3975 19.7237 14.3494 19.6411 14.4004C19.5587 14.4514 19.3892 14.3701 19.2644 14.2198C19.1396 14.0695 19.1044 13.9466 19.1862 13.9466C19.2679 13.9466 19.1002 13.7018 18.8136 13.4027C18.527 13.1034 18.2205 12.9031 18.1325 12.9575C18.0446 13.0118 17.9844 12.9883 17.9989 12.905C18.0628 12.5371 17.9695 12.0974 17.844 12.1748C17.7683 12.2216 17.7064 11.9041 17.7064 11.4692C17.7064 11.0343 17.7683 10.7168 17.844 10.7636C17.9198 10.8102 17.9817 10.7326 17.9817 10.591C17.9817 10.4493 18.1448 10.1856 18.3442 10.005C18.5437 9.82463 18.6549 9.59249 18.5912 9.48954C18.5248 9.38219 18.5659 9.35815 18.6872 9.43321C18.8037 9.50514 18.8991 9.47927 18.8991 9.3754C18.8991 9.27172 19.0229 9.23447 19.1743 9.29246C19.3257 9.35063 19.4495 9.32732 19.4495 9.24089C19.4495 9.15446 19.6972 9.08362 20 9.08362C20.3028 9.08362 20.5505 9.14565 20.5505 9.22125ZM22.844 17.6167C23.0266 17.8186 23.2174 17.9837 23.2679 17.9837C23.3183 17.9837 23.2101 17.8186 23.0275 17.6167C22.845 17.4149 22.6541 17.2497 22.6037 17.2497C22.5532 17.2497 22.6615 17.4149 22.844 17.6167ZM20.4072 21.0287L19.9169 21.6429L19.409 21.1562L18.9011 20.6696L19.4965 20.1684L20.0917 19.6671L20.4945 20.0407L20.8973 20.4143L20.4072 21.0287ZM19.4495 21.0116C19.6866 21.2639 19.9218 21.4704 19.9723 21.4704C20.0228 21.4704 19.8701 21.2639 19.633 21.0116C19.396 20.7593 19.1607 20.5528 19.1103 20.5528C19.0598 20.5528 19.2125 20.7593 19.4495 21.0116ZM27.4312 26.6086C28.0305 27.2142 28.4793 27.7096 28.4288 27.7096C28.3784 27.7096 27.847 27.2142 27.2477 26.6086C26.6484 26.003 26.1996 25.5075 26.2501 25.5075C26.3005 25.5075 26.8319 26.003 27.4312 26.6086ZM5.1611 27.6638C5.38918 27.9548 5.38275 27.9612 5.09174 27.7331C4.91505 27.5946 4.77064 27.45 4.77064 27.412C4.77064 27.261 4.92129 27.358 5.1611 27.6638ZM35.2294 27.412C35.2294 27.45 35.0848 27.5946 34.9083 27.7331C34.6172 27.9612 34.6108 27.9548 34.8389 27.6638C35.0787 27.358 35.2294 27.261 35.2294 27.412ZM27.5229 29.1241C27.5229 29.2619 27.3582 29.1162 26.5978 28.306L25.7798 27.4344L26.6514 28.2525C27.1308 28.7024 27.5229 29.0948 27.5229 29.1241ZM12.6606 29.047C12.6606 29.076 12.227 29.5095 11.6972 30.0105L10.7339 30.921L11.6444 29.9576C12.4906 29.0625 12.6606 28.91 12.6606 29.047ZM15.8088 31.1963C15.8088 31.4486 15.8505 31.5519 15.9013 31.4257C15.9523 31.2996 15.9523 31.0932 15.9013 30.9669C15.8505 30.8408 15.8088 30.944 15.8088 31.1963ZM15.8156 32.5726C15.8193 32.8754 15.8604 32.977 15.907 32.7985C15.9536 32.6199 15.9505 32.3722 15.9002 32.248C15.8499 32.1237 15.8119 32.2698 15.8156 32.5726ZM29.2661 35.2334C29.8653 35.839 30.3141 36.3345 30.2637 36.3345C30.2132 36.3345 29.6818 35.839 29.0826 35.2334C28.4833 34.6279 28.0345 34.1324 28.085 34.1324C28.1354 34.1324 28.6668 34.6279 29.2661 35.2334ZM9.90826 36.2031C9.90826 36.2317 9.43358 36.7066 8.85321 37.2583L7.79817 38.2613L8.8011 37.2062C9.73284 36.2259 9.90826 36.0669 9.90826 36.2031ZM15.7943 39.3776C15.8031 39.5914 15.8466 39.6349 15.9051 39.4886C15.9582 39.3561 15.9516 39.1978 15.8906 39.1368C15.8297 39.0759 15.7864 39.1842 15.7943 39.3776ZM13.1528 40.4062C13.0943 40.5524 13.0508 40.5089 13.042 40.2951C13.0341 40.1017 13.0774 39.9935 13.1383 40.0544C13.1993 40.1153 13.2059 40.2737 13.1528 40.4062Z" fill="#FFEE32"/>
</svg>
