<svg width="32" height="32" viewBox="0 0 32 32" fill="none" xmlns="http://www.w3.org/2000/svg">
<circle cx="16" cy="16" r="16" fill="#D6D6D6"/>
<path d="M10.2929 20.8995C9.90237 21.29 9.90237 21.9232 10.2929 22.3137C10.6834 22.7043 11.3166 22.7043 11.7071 22.3137L10.2929 20.8995ZM22.6066 11C22.6066 10.4477 22.1589 10 21.6066 10L12.6066 10C12.0543 10 11.6066 10.4477 11.6066 11C11.6066 11.5523 12.0543 12 12.6066 12L20.6066 12V20C20.6066 20.5523 21.0543 21 21.6066 21C22.1589 21 22.6066 20.5523 22.6066 20V11ZM11.7071 22.3137L22.3137 11.7071L20.8995 10.2929L10.2929 20.8995L11.7071 22.3137Z" fill="black"/>
</svg>
