<svg width="319" height="184" viewBox="0 0 319 184" fill="none" xmlns="http://www.w3.org/2000/svg">
<path d="M0.5 16.001C0.5 7.16448 7.66344 0.0010376 16.5 0.0010376H302.5C311.337 0.0010376 318.5 7.16448 318.5 16.001V168.001C318.5 176.838 311.337 184.001 302.5 184.001H16.5C7.66345 184.001 0.5 176.838 0.5 168.001V16.001Z" fill="url(#paint0_linear_223_7)"/>
<path d="M297.368 40.422C297.368 52.8484 287.294 62.922 274.868 62.922C262.442 62.922 252.368 52.8484 252.368 40.422C252.368 27.9956 262.442 17.922 274.868 17.922C287.294 17.922 297.368 27.9956 297.368 40.422Z" fill="#D6D6D6" fill-opacity="0.61"/>
<defs>
<linearGradient id="paint0_linear_223_7" x1="318.5" y1="20.501" x2="0.500008" y2="184.001" gradientUnits="userSpaceOnUse">
<stop stop-color="#865699"/>
<stop offset="1" stop-color="#612F74"/>
</linearGradient>
</defs>
</svg>
